<?xml version="1.0" standalone="no"?>
<!DOCTYPE svg PUBLIC "-//W3C//DTD SVG 20010904//EN"
 "http://www.w3.org/TR/2001/REC-SVG-20010904/DTD/svg10.dtd">
<svg version="1.0" xmlns="http://www.w3.org/2000/svg"
 width="310.000000pt" height="310.000000pt" viewBox="0 0 310.000000 310.000000"
 preserveAspectRatio="xMidYMid meet">
<metadata>
Created by potrace 1.11, written by Peter Selinger 2001-2013
</metadata>
<g transform="translate(0.000000,310.000000) scale(0.100000,-0.100000)"
fill="#000000" stroke="none">
<path d="M0 2415 c0 -371 2 -675 5 -675 18 0 55 36 56 54 1 19 2 18 9 -4 6
-22 8 -23 15 -7 4 9 14 17 22 17 13 0 13 -2 2 -17 -13 -15 -12 -15 9 -2 12 8
22 19 22 25 0 6 18 14 40 18 22 3 40 12 40 18 0 7 6 4 13 -6 11 -15 17 -17 35
-7 12 6 22 18 22 26 0 8 7 15 15 15 8 0 15 5 15 10 0 18 19 10 25 -11 7 -21
42 -23 38 -2 -1 6 11 16 27 21 32 12 32 11 12 -62 -6 -20 -7 -34 -3 -31 5 2
11 18 14 34 3 15 22 45 41 65 l35 37 -99 -3 c-89 -3 -97 -1 -89 14 15 28 113
69 177 75 53 5 202 -10 237 -23 9 -4 24 30 49 109 20 64 36 117 36 120 0 3
-40 5 -89 6 -183 3 -314 32 -396 89 -36 25 -105 112 -105 132 0 5 22 -6 49
-25 77 -51 161 -76 276 -81 229 -10 305 -10 305 -2 0 4 -60 8 -134 8 -345 0
-497 73 -551 262 -30 106 -16 246 30 303 16 19 16 19 10 0 -28 -88 -17 -159
35 -218 43 -48 75 -62 215 -92 198 -41 367 -102 471 -168 l41 -26 58 22 58 21
-7 74 c-3 41 -6 88 -6 104 0 26 -3 28 -38 28 -49 0 -151 34 -199 67 -21 14
-43 26 -50 27 -7 1 -19 8 -26 16 -9 10 -9 11 1 6 14 -8 17 10 2 19 -19 12 -52
87 -65 149 -7 33 -14 50 -14 36 0 -14 4 -43 9 -65 11 -48 -5 -79 -26 -50 -8
10 -20 15 -29 11 -9 -3 -13 -2 -10 4 4 6 -6 7 -24 4 -23 -5 -31 -2 -41 16 -6
12 -9 24 -6 28 3 3 6 1 6 -4 0 -5 12 -10 28 -10 15 -1 21 1 15 3 -19 7 -16 21
5 27 9 2 1 4 -18 3 -19 0 -39 -3 -45 -6 -18 -11 -53 -7 -48 4 6 17 -23 38 -53
38 -17 0 -23 4 -20 13 3 9 -6 14 -31 16 -22 2 -38 9 -40 18 -4 13 -3 13 6 0 9
-13 11 -13 11 1 0 8 -10 25 -23 37 -22 21 -33 22 -190 22 l-167 0 0 -675z
m337 633 c-3 -8 -6 -5 -6 6 -1 11 2 17 5 13 3 -3 4 -12 1 -19z m23 -54 c0 -8
-5 -12 -10 -9 -6 4 -8 11 -5 16 9 14 15 11 15 -7z m356 -171 c-10 -10 -19 5
-10 18 6 11 8 11 12 0 2 -7 1 -15 -2 -18z m352 -248 c-3 -3 -9 2 -12 12 -6 14
-5 15 5 6 7 -7 10 -15 7 -18z m-881 -731 c-3 -3 -12 -4 -19 -1 -8 3 -5 6 6 6
11 1 17 -2 13 -5z"/>
<path d="M367 3083 c-3 -5 14 -8 38 -8 24 0 38 3 32 7 -16 10 -65 10 -70 1z"/>
<path d="M683 3050 c0 -25 2 -35 4 -22 2 12 2 32 0 45 -2 12 -4 2 -4 -23z"/>
<path d="M771 3045 c1 -19 18 -51 18 -35 0 8 -4 22 -9 30 -5 8 -9 11 -9 5z"/>
<path d="M790 2984 c0 -17 55 -97 86 -124 27 -23 27 -23 -3 10 -17 19 -43 55
-57 80 -14 25 -26 40 -26 34z"/>
<path d="M1020 2935 c0 -5 5 -17 10 -25 5 -8 10 -10 10 -5 0 6 -5 17 -10 25
-5 8 -10 11 -10 5z"/>
<path d="M1041 2875 c1 -19 18 -51 18 -35 0 8 -4 22 -9 30 -5 8 -9 11 -9 5z"/>
<path d="M950 2810 c8 -5 22 -9 30 -9 10 0 8 3 -5 9 -27 12 -43 12 -25 0z"/>
<path d="M1060 2806 c0 -8 4 -17 9 -20 5 -4 7 3 4 14 -6 23 -13 26 -13 6z"/>
<path d="M1008 2793 c7 -3 16 -2 19 1 4 3 -2 6 -13 5 -11 0 -14 -3 -6 -6z"/>
<path d="M1171 2764 c0 -11 3 -14 6 -6 3 7 2 16 -1 19 -3 4 -6 -2 -5 -13z"/>
<path d="M1181 2714 c0 -11 3 -14 6 -6 3 7 2 16 -1 19 -3 4 -6 -2 -5 -13z"/>
<path d="M1192 2650 c0 -14 2 -19 5 -12 2 6 2 18 0 25 -3 6 -5 1 -5 -13z"/>
<path d="M1205 2576 c3 -27 5 -57 5 -67 0 -12 7 -19 18 -19 10 0 13 3 6 8 -6
4 -16 34 -22 67 -10 53 -11 55 -7 11z"/>
<path d="M2116 2558 c-30 -75 -30 -76 -34 -24 l-3 48 -49 -6 c-26 -4 -66 -12
-87 -20 -35 -12 -39 -17 -45 -61 -4 -26 -12 -61 -19 -77 -6 -16 -10 -30 -8
-31 2 -2 29 -21 60 -44 l56 -41 84 10 c215 25 444 -33 606 -155 23 -18 41 -36
40 -41 -5 -14 -106 -46 -167 -52 -80 -9 -175 17 -298 81 -139 72 -272 107
-272 72 0 -8 25 -17 68 -25 48 -8 105 -30 189 -72 152 -77 245 -99 347 -81 38
6 71 10 73 7 2 -2 -24 -21 -58 -42 -207 -125 -319 -130 -547 -22 -35 16 -66
27 -69 25 -8 -9 37 -33 137 -73 89 -36 102 -38 201 -39 104 0 106 0 192 43 47
23 107 58 132 77 25 19 45 31 45 26 0 -15 -75 -105 -121 -145 -24 -21 -73 -53
-109 -70 -58 -28 -74 -31 -155 -31 -96 1 -188 24 -272 70 -40 22 -43 22 -43 5
0 -13 19 -26 70 -47 73 -29 87 -43 44 -43 -47 0 -114 -22 -114 -37 0 -9 6 -13
15 -9 8 3 52 10 98 17 138 19 226 -17 278 -115 13 -26 30 -46 36 -46 17 0 17
3 -11 59 -14 26 -42 61 -62 76 l-38 29 61 13 c127 25 244 114 330 249 25 41
50 74 54 74 25 0 167 -197 224 -310 35 -69 108 -247 118 -285 2 -11 5 100 6
247 l1 268 -35 54 c-37 58 -137 171 -164 186 -12 6 -32 -3 -74 -31 -31 -22
-57 -38 -57 -37 0 2 11 35 25 73 l25 70 -48 43 c-163 148 -345 222 -544 222
l-99 0 -13 -32z"/>
<path d="M1305 2483 c-50 -10 -85 -26 -85 -38 0 -10 9 -11 38 -4 20 5 55 9 78
9 37 0 64 13 64 31 0 8 -59 9 -95 2z"/>
<path d="M1018 2339 c-71 -71 -76 -79 -117 -189 -23 -63 -46 -125 -51 -136 -8
-20 -4 -23 38 -34 49 -12 119 -61 187 -131 39 -40 124 -89 156 -89 15 0 15 6
4 68 -27 143 -82 250 -149 291 -40 25 -112 28 -144 5 -30 -21 -28 -6 11 79 25
53 49 87 94 128 41 37 58 60 53 69 -5 9 -29 -9 -82 -61z"/>
<path d="M1777 2210 c-6 -24 3 -40 24 -40 10 0 19 4 19 9 0 5 14 11 31 15 47
9 30 30 -24 31 -33 0 -47 -4 -50 -15z"/>
<path d="M1826 2081 c-3 -5 1 -14 9 -21 11 -9 18 -9 29 3 8 8 12 17 9 21 -9 9
-41 7 -47 -3z"/>
<path d="M1525 2059 c-11 -17 1 -21 15 -4 8 9 8 15 2 15 -6 0 -14 -5 -17 -11z"/>
<path d="M1427 1990 c-32 -38 -104 -160 -94 -160 3 0 18 21 33 48 15 26 45 71
66 100 46 62 43 68 -5 12z"/>
<path d="M1600 1954 c0 -3 11 -19 24 -35 30 -36 46 -107 46 -207 0 -68 -26
-201 -44 -231 -5 -7 4 -11 27 -11 32 0 36 4 57 53 13 28 30 94 38 146 13 77
14 105 4 164 -20 112 -27 121 -95 125 -31 2 -57 0 -57 -4z"/>
<path d="M1875 1702 c0 -105 -5 -193 -12 -215 -10 -34 -10 -38 5 -35 26 5 35
69 36 240 1 127 -2 160 -14 172 -13 14 -15 -4 -15 -162z"/>
<path d="M665 1831 c-47 -12 -87 -36 -120 -73 l-30 -33 30 26 c40 36 104 69
132 69 13 0 23 5 23 10 0 6 -1 10 -2 9 -2 -1 -16 -4 -33 -8z"/>
<path d="M781 1773 c-6 -32 -17 -93 -25 -135 -12 -73 -11 -78 6 -78 14 0 18 8
19 43 1 23 4 53 8 67 6 20 10 12 20 -43 8 -38 19 -70 25 -72 6 -2 25 -6 41 -8
l30 -5 0 127 0 128 -46 17 c-26 9 -51 16 -56 16 -6 0 -16 -26 -22 -57z"/>
<path d="M464 1798 c-10 -12 -14 -18 -7 -15 7 5 13 -2 15 -20 3 -22 5 -19 9
15 2 23 4 42 3 42 0 0 -9 -10 -20 -22z"/>
<path d="M1348 1753 c-29 -45 -47 -84 -51 -113 -3 -25 -9 -64 -13 -87 -4 -29
-3 -43 4 -43 7 0 9 7 5 17 -4 11 -3 14 5 9 7 -4 12 -14 12 -22 0 -9 10 -14 29
-14 29 0 29 0 19 37 -12 43 -4 117 22 211 10 37 17 68 16 69 -2 2 -23 -27 -48
-64z"/>
<path d="M1036 1708 c-9 -34 -7 -166 2 -172 5 -3 32 -8 60 -12 l52 -7 -1 49
c-1 75 -20 136 -46 145 -20 7 -21 6 -13 -17 13 -33 13 -76 0 -110 -10 -25 -12
-26 -26 -12 -23 23 -29 91 -11 127 12 24 13 31 2 31 -7 0 -15 -10 -19 -22z"/>
<path d="M1215 1710 c-11 -5 -32 -9 -47 -9 -25 -1 -27 -3 -18 -25 5 -13 10
-53 12 -89 2 -63 4 -66 30 -69 25 -4 28 -1 37 41 13 62 21 161 13 160 -4 0
-16 -4 -27 -9z"/>
<path d="M1422 1568 c-7 -7 -12 -27 -12 -45 0 -30 3 -33 29 -33 32 0 45 20 35
54 -11 34 -32 44 -52 24z m26 -30 c-4 -27 -28 -36 -28 -10 0 20 8 32 22 32 5
0 8 -10 6 -22z"/>
<path d="M2451 1434 c0 -11 3 -14 6 -6 3 7 2 16 -1 19 -3 4 -6 -2 -5 -13z"/>
<path d="M740 1422 c0 -6 82 -286 85 -290 3 -3 250 -31 278 -32 9 0 17 7 17
15 0 8 9 34 19 57 11 24 32 75 46 113 15 39 29 75 32 82 6 16 -124 30 -140 14
-17 -17 -59 -13 -92 9 -21 14 -48 20 -90 21 -33 0 -81 4 -107 8 -27 4 -48 6
-48 3z m120 -103 c0 -6 -4 -7 -10 -4 -5 3 -10 11 -10 16 0 6 5 7 10 4 6 -3 10
-11 10 -16z m220 -24 c-14 -17 -30 -20 -30 -6 0 5 8 12 18 14 9 3 19 5 21 6 2
0 -2 -6 -9 -14z m-156 -34 c-2 -3 -12 3 -22 13 -16 17 -16 18 5 5 12 -7 20
-15 17 -18z"/>
<path d="M1378 1357 c19 -22 76 -47 109 -47 15 0 46 9 68 19 l40 18 -70 7
c-38 4 -90 9 -114 12 -39 5 -43 4 -33 -9z"/>
<path d="M1687 1312 c-27 -29 -102 -62 -154 -68 -38 -4 -58 -1 -95 19 -41 20
-48 22 -47 8 1 -20 17 -60 18 -44 1 9 11 8 42 -2 23 -8 50 -15 60 -15 37 0
116 33 164 70 28 20 57 40 65 43 9 3 4 6 -11 6 -14 1 -33 -7 -42 -17z"/>
<path d="M1774 1299 c-34 -37 -162 -129 -178 -129 -7 0 -29 -9 -51 -20 -51
-26 -54 -26 -96 15 -20 19 -39 32 -41 29 -10 -9 5 -53 23 -70 20 -18 26 -54
10 -54 -5 0 -8 -8 -7 -17 3 -15 22 -20 132 -30 71 -6 143 -12 161 -12 l31 -1
50 153 c27 83 49 152 48 153 0 1 -13 4 -27 7 -20 5 -32 0 -55 -24z m58 -28
c-4 -12 -12 -22 -17 -20 -6 1 -15 -9 -22 -22 -7 -13 -18 -24 -25 -25 -29 -2
-32 -5 -19 -13 11 -7 7 -13 -20 -25 -19 -9 -24 -13 -11 -10 20 5 22 2 21 -28
-1 -25 -3 -27 -6 -10 -3 18 -10 23 -24 19 -10 -3 -19 -1 -19 4 0 13 -28 11
-36 -3 -4 -6 -3 -8 4 -4 6 4 12 -3 14 -16 2 -17 11 -24 34 -28 28 -4 31 -8 23
-27 -5 -13 -12 -23 -17 -23 -14 0 -33 26 -25 33 3 4 1 7 -5 7 -6 0 -14 9 -17
20 -3 11 -11 20 -16 20 -6 0 -8 -4 -5 -8 2 -4 -4 -9 -15 -9 -11 -1 -17 2 -14
8 9 14 -15 11 -30 -5 -8 -7 -11 -17 -7 -21 4 -5 -3 -6 -15 -3 -13 4 -27 0 -34
-8 -6 -8 -19 -14 -28 -15 -11 0 -12 -2 -3 -6 7 -3 19 0 27 7 11 9 18 9 30 -4
9 -9 12 -16 6 -16 -5 0 -13 5 -17 11 -4 8 -9 8 -17 0 -16 -16 -47 -13 -47 4 0
9 43 36 112 70 61 30 114 59 117 63 3 4 22 19 41 32 19 14 46 37 59 52 28 31
35 31 23 -1z m-52 -121 c6 -11 8 -20 6 -20 -3 0 -10 9 -16 20 -6 11 -8 20 -6
20 3 0 10 -9 16 -20z m-14 -80 c-13 -44 -36 -66 -36 -35 0 9 4 14 9 11 4 -3
14 13 20 35 7 23 14 39 16 37 2 -2 -2 -24 -9 -48z m-76 -30 c0 -5 -4 -10 -10
-10 -5 0 -10 5 -10 10 0 6 5 10 10 10 6 0 10 -4 10 -10z"/>
<path d="M3010 1116 c0 -13 -67 -15 -442 -19 -315 -2 -454 -7 -481 -16 -59
-19 -102 -64 -153 -164 -26 -50 -51 -93 -56 -95 -15 -6 -8 -22 10 -22 11 0 35
24 60 59 58 82 116 111 227 111 l82 0 -8 -47 c-5 -27 -15 -100 -24 -163 -30
-215 -60 -318 -146 -498 -33 -67 -59 -134 -59 -148 0 -33 45 -74 81 -74 22 0
29 -5 29 -20 0 -20 7 -20 385 -20 l386 0 -7 35 c-4 22 -2 41 6 50 22 26 30 16
30 -35 l0 -50 85 0 85 0 0 380 0 380 -27 1 c-16 1 -37 3 -48 4 -11 2 -80 6
-152 10 l-133 8 0 33 c0 53 8 64 50 64 52 0 57 13 15 44 -19 15 -35 31 -35 37
0 5 30 9 66 9 l67 0 -7 -40 -6 -40 105 0 105 0 0 68 c-1 43 -6 74 -15 86 -8
11 -15 28 -15 38 0 10 -6 18 -14 18 -8 0 -16 7 -20 15 -7 19 -26 20 -26 1z
m-370 -183 l-1 -38 -22 28 c-24 29 -37 27 -37 -5 0 -10 11 -23 24 -29 27 -13
38 -42 30 -76 -5 -19 -13 -23 -45 -23 -26 0 -42 -5 -45 -15 -4 -11 -10 -12
-18 -6 -6 5 -17 7 -23 3 -9 -6 -10 -44 -3 -152 5 -80 10 -177 10 -216 l0 -71
-42 -16 c-24 -8 -81 -29 -126 -46 -46 -17 -87 -31 -91 -31 -4 0 3 60 15 133
13 72 33 237 46 365 l23 232 152 0 153 0 0 -37z m380 22 c0 -8 -4 -15 -9 -15
-5 0 -14 7 -21 15 -10 13 -9 15 9 15 12 0 21 -6 21 -15z m-142 -692 c33 -19
42 -29 42 -51 0 -27 -15 -52 -32 -52 -4 0 -8 13 -8 28 0 26 -6 31 -70 57 -39
16 -74 33 -79 39 -8 10 -15 41 -12 59 1 6 41 -14 159 -80z"/>
<path d="M342 964 c-18 -12 -26 -13 -37 -4 -20 17 -83 2 -101 -25 -10 -15 -12
-35 -8 -69 8 -57 19 -52 15 8 -2 30 3 47 14 56 27 23 65 -28 65 -85 0 -39 4
-46 30 -60 l30 -16 0 44 c0 70 53 103 85 54 14 -22 13 -37 -5 -168 -12 -79
-30 -189 -41 -244 -11 -55 -24 -127 -28 -160 -5 -33 -11 -67 -15 -76 -5 -12 6
-22 51 -41 l58 -25 80 24 c70 21 115 49 115 73 0 4 -11 12 -24 18 -23 10 -25
9 -31 -19 -7 -29 -35 -49 -70 -49 -15 0 -3 50 61 258 101 322 168 440 206 358
9 -21 4 -40 -37 -133 -26 -59 -49 -112 -51 -118 -2 -5 9 -10 24 -11 28 -1 32
6 97 142 37 78 64 147 60 153 -3 6 -17 11 -30 11 -12 0 -26 7 -29 16 -4 11
-14 15 -32 11 -17 -3 -28 1 -31 10 -4 9 -17 13 -37 12 -17 -2 -41 3 -54 10
-12 6 -27 9 -33 5 -6 -3 -17 4 -26 16 -11 16 -22 20 -39 16 -14 -4 -24 -2 -24
4 0 14 -33 13 -48 -2 -8 -8 -12 -8 -12 -1 0 19 -30 23 -54 8 -21 -14 -25 -14
-36 0 -16 19 -30 19 -58 -1z m-44 -33 c3 -8 -1 -12 -9 -9 -7 2 -15 10 -17 17
-3 8 1 12 9 9 7 -2 15 -10 17 -17z m182 -1 c8 -14 8 -26 0 -40 -13 -25 -19
-25 -49 1 -23 19 -23 20 -6 39 23 25 41 25 55 0z m130 -43 c0 -12 -5 -17 -14
-14 -7 3 -23 -1 -34 -8 -10 -8 -22 -12 -24 -9 -11 10 6 55 26 69 19 14 22 14
33 -2 7 -9 13 -25 13 -36z m138 -20 c2 -10 -4 -24 -14 -31 -14 -11 -20 -10
-37 7 -20 20 -20 20 -1 34 24 17 48 13 52 -10z m-119 -32 l20 -26 -38 -112
c-21 -62 -48 -146 -60 -187 -41 -145 -70 -255 -76 -292 -8 -41 -11 -43 -49
-28 -25 9 -25 9 -11 57 27 88 115 530 115 575 0 9 50 37 67 38 6 0 21 -11 32
-25z"/>
<path d="M1160 965 c-8 -10 -30 -15 -61 -15 l-48 0 -6 -42 c-3 -24 -4 -63 -3
-87 3 -40 1 -44 -32 -62 -83 -45 -179 -151 -166 -184 4 -11 12 -12 38 -3 89
28 278 51 278 34 0 -3 -16 -35 -35 -73 -19 -37 -40 -92 -47 -121 -26 -116 30
-323 99 -363 27 -16 72 -24 120 -20 30 2 80 46 104 93 44 87 88 270 69 293 -6
7 -10 32 -8 55 3 40 5 43 52 61 54 20 91 50 112 91 20 39 18 45 -23 53 -33 6
-85 29 -121 53 -11 7 -9 19 12 59 28 56 37 104 19 110 -7 2 -18 -19 -27 -51
-9 -31 -21 -56 -26 -56 -6 0 -10 5 -10 11 0 14 -42 7 -47 -8 -3 -7 3 -9 17 -6
20 5 21 4 8 -27 -8 -19 -26 -42 -40 -53 -23 -17 -30 -18 -43 -7 -34 28 12 113
90 166 38 26 45 34 28 34 -32 0 -121 -85 -134 -129 -18 -60 -10 -85 30 -89 23
-2 40 3 55 18 l23 20 58 -35 c32 -19 69 -35 82 -35 31 0 29 -11 -12 -53 -59
-60 -102 -60 -264 -1 -84 31 -103 35 -200 35 -60 0 -129 -6 -158 -14 -34 -9
-53 -10 -53 -4 0 18 85 91 140 121 l51 28 43 -46 c67 -73 113 -58 104 35 -4
38 -15 65 -46 110 -36 51 -38 59 -21 59 14 0 19 7 19 30 0 34 -3 36 -20 15z
m-27 -74 c50 -56 65 -80 76 -130 11 -51 6 -71 -19 -71 -35 0 -107 106 -87 127
4 3 19 -2 34 -12 l28 -17 -27 28 c-22 22 -30 25 -41 15 -12 -9 -16 -7 -20 10
-7 25 3 89 13 89 4 0 24 -18 43 -39z m27 -513 c62 -24 168 -27 240 -8 23 6 44
9 47 6 10 -10 -38 -170 -69 -228 -42 -79 -89 -107 -148 -89 -67 20 -114 106
-125 229 -3 31 -8 69 -10 85 -5 33 -4 33 65 5z"/>
<path d="M1378 903 c6 -2 18 -2 25 0 6 3 1 5 -13 5 -14 0 -19 -2 -12 -5z"/>
</g>
</svg>
